<svg height="40px" viewBox="0 0 40 40" width="40px" xmlns="http://www.w3.org/2000/svg"><g fill="#333f48" fill-rule="evenodd" transform="translate(5 5.862287)"><path d="m29.375 2.50412541h-4.375v-1.87809406c0-.3455693-.28-.62603135-.625-.62603135s-.625.28046205-.625.62603135v1.87809406h-5v-1.87809406c0-.3455693-.28-.62603135-.625-.62603135s-.625.28046205-.625.62603135v1.87809406h-5v-1.87809406c0-.3455693-.28-.62603135-.625-.62603135s-.625.28046205-.625.62603135v1.87809406h-5v-1.87809406c0-.3455693-.28-.62603135-.625-.62603135s-.625.28046205-.625.62603135v1.87809406h-4.375c-.345 0-.625.28046205-.625.62603136v23.78919143c0 .3455693.28.6260313.625.6260313h28.75c.345 0 .625-.280462.625-.6260313v-23.78919143c0-.34556931-.28-.62603136-.625-.62603136zm-24.375 1.25206271v.62603135c0 .34556931.28.62603136.625.62603136s.625-.28046205.625-.62603136v-.62603135h5v.62603135c0 .34556931.28.62603136.625.62603136s.625-.28046205.625-.62603136v-.62603135h5v.62603135c0 .34556931.28.62603136.625.62603136s.625-.28046205.625-.62603136v-.62603135h5v.62603135c0 .34556931.28.62603136.625.62603136s.625-.28046205.625-.62603136v-.62603135h3.75v3.75618812h-27.5v-3.75618812zm-3.75 22.53712868v-17.52887786h27.5v17.52887786z"/><path d="m9.375 11.2685644h-3.75c-.345 0-.625.280462-.625.6260313v3.7561881c0 .3455693.28.6260314.625.6260314h3.75c.345 0 .625-.2804621.625-.6260314v-3.7561881c0-.3455693-.28-.6260313-.625-.6260313zm-.625 3.7561881h-2.5v-2.5041254h2.5z"/><path d="m24.375 11.2685644h-3.75c-.345 0-.625.280462-.625.6260313v3.7561881c0 .3455693.28.6260314.625.6260314h3.75c.345 0 .625-.2804621.625-.6260314v-3.7561881c0-.3455693-.28-.6260313-.625-.6260313zm-.625 3.7561881h-2.5v-2.5041254h2.5z"/><path d="m16.875 11.2685644h-3.75c-.345 0-.625.280462-.625.6260313v3.7561881c0 .3455693.28.6260314.625.6260314h3.75c.345 0 .625-.2804621.625-.6260314v-3.7561881c0-.3455693-.28-.6260313-.625-.6260313zm-.625 3.7561881h-2.5v-2.5041254h2.5z"/><path d="m9.375 18.7809406h-3.75c-.345 0-.625.280462-.625.6260313v3.7561882c0 .3455693.28.6260313.625.6260313h3.75c.345 0 .625-.280462.625-.6260313v-3.7561882c0-.3455693-.28-.6260313-.625-.6260313zm-.625 3.7561881h-2.5v-2.5041254h2.5z"/><path d="m24.375 18.7809406h-3.75c-.345 0-.625.280462-.625.6260313v3.7561882c0 .3455693.28.6260313.625.6260313h3.75c.345 0 .625-.280462.625-.6260313v-3.7561882c0-.3455693-.28-.6260313-.625-.6260313zm-.625 3.7561881h-2.5v-2.5041254h2.5z"/><path d="m16.875 18.7809406h-3.75c-.345 0-.625.280462-.625.6260313v3.7561882c0 .3455693.28.6260313.625.6260313h3.75c.345 0 .625-.280462.625-.6260313v-3.7561882c0-.3455693-.28-.6260313-.625-.6260313zm-.625 3.7561881h-2.5v-2.5041254h2.5z"/></g></svg>